<mxfile host="app.diagrams.net" agent="Mozilla/5.0 (Windows NT 10.0; Win64; x64) AppleWebKit/537.36 (KHTML, like Gecko) Chrome/139.0.0.0 Safari/537.36" version="28.0.7">
  <diagram name="PÃ¡gina-1" id="0QFbv7XouJYIVFjFbHeS">
    <mxGraphModel dx="1826" dy="1183" grid="1" gridSize="10" guides="1" tooltips="1" connect="1" arrows="1" fold="1" page="0" pageScale="1" pageWidth="827" pageHeight="1169" math="0" shadow="0">
      <root>
        <mxCell id="0" />
        <mxCell id="1" parent="0" />
        <mxCell id="MwPjWRYvfaQTRuybYrs7-47" style="edgeStyle=orthogonalEdgeStyle;rounded=0;orthogonalLoop=1;jettySize=auto;html=1;exitX=0.5;exitY=1;exitDx=0;exitDy=0;entryX=0.5;entryY=0;entryDx=0;entryDy=0;" edge="1" parent="1" source="MwPjWRYvfaQTRuybYrs7-1" target="MwPjWRYvfaQTRuybYrs7-7">
          <mxGeometry relative="1" as="geometry" />
        </mxCell>
        <mxCell id="MwPjWRYvfaQTRuybYrs7-80" style="edgeStyle=orthogonalEdgeStyle;rounded=0;orthogonalLoop=1;jettySize=auto;html=1;exitX=0.25;exitY=1;exitDx=0;exitDy=0;entryX=0.5;entryY=0;entryDx=0;entryDy=0;" edge="1" parent="1" source="MwPjWRYvfaQTRuybYrs7-1" target="MwPjWRYvfaQTRuybYrs7-5">
          <mxGeometry relative="1" as="geometry" />
        </mxCell>
        <mxCell id="MwPjWRYvfaQTRuybYrs7-103" value="1:N" style="edgeLabel;html=1;align=center;verticalAlign=middle;resizable=0;points=[];" vertex="1" connectable="0" parent="MwPjWRYvfaQTRuybYrs7-80">
          <mxGeometry x="0.1067" y="1" relative="1" as="geometry">
            <mxPoint as="offset" />
          </mxGeometry>
        </mxCell>
        <mxCell id="MwPjWRYvfaQTRuybYrs7-83" style="edgeStyle=orthogonalEdgeStyle;rounded=0;orthogonalLoop=1;jettySize=auto;html=1;exitX=0.75;exitY=0;exitDx=0;exitDy=0;entryX=0.5;entryY=1;entryDx=0;entryDy=0;" edge="1" parent="1" source="MwPjWRYvfaQTRuybYrs7-1" target="MwPjWRYvfaQTRuybYrs7-9">
          <mxGeometry relative="1" as="geometry" />
        </mxCell>
        <mxCell id="MwPjWRYvfaQTRuybYrs7-84" style="edgeStyle=orthogonalEdgeStyle;rounded=0;orthogonalLoop=1;jettySize=auto;html=1;exitX=0.25;exitY=0;exitDx=0;exitDy=0;entryX=0.5;entryY=1;entryDx=0;entryDy=0;" edge="1" parent="1" source="MwPjWRYvfaQTRuybYrs7-1" target="MwPjWRYvfaQTRuybYrs7-8">
          <mxGeometry relative="1" as="geometry" />
        </mxCell>
        <mxCell id="MwPjWRYvfaQTRuybYrs7-87" style="edgeStyle=orthogonalEdgeStyle;rounded=0;orthogonalLoop=1;jettySize=auto;html=1;exitX=0;exitY=1;exitDx=0;exitDy=0;entryX=0.5;entryY=0;entryDx=0;entryDy=0;" edge="1" parent="1" source="MwPjWRYvfaQTRuybYrs7-1" target="MwPjWRYvfaQTRuybYrs7-2">
          <mxGeometry relative="1" as="geometry" />
        </mxCell>
        <mxCell id="MwPjWRYvfaQTRuybYrs7-102" value="1:N" style="edgeLabel;html=1;align=center;verticalAlign=middle;resizable=0;points=[];" vertex="1" connectable="0" parent="MwPjWRYvfaQTRuybYrs7-87">
          <mxGeometry x="0.0928" y="-1" relative="1" as="geometry">
            <mxPoint y="1" as="offset" />
          </mxGeometry>
        </mxCell>
        <mxCell id="MwPjWRYvfaQTRuybYrs7-1" value="citas" style="rounded=1;whiteSpace=wrap;html=1;" vertex="1" parent="1">
          <mxGeometry x="500" y="-10" width="120" height="60" as="geometry" />
        </mxCell>
        <mxCell id="MwPjWRYvfaQTRuybYrs7-62" style="edgeStyle=orthogonalEdgeStyle;rounded=0;orthogonalLoop=1;jettySize=auto;html=1;exitX=1;exitY=0.5;exitDx=0;exitDy=0;entryX=0;entryY=0.5;entryDx=0;entryDy=0;" edge="1" parent="1" source="MwPjWRYvfaQTRuybYrs7-2" target="MwPjWRYvfaQTRuybYrs7-58">
          <mxGeometry relative="1" as="geometry" />
        </mxCell>
        <mxCell id="MwPjWRYvfaQTRuybYrs7-64" style="edgeStyle=orthogonalEdgeStyle;rounded=0;orthogonalLoop=1;jettySize=auto;html=1;exitX=0;exitY=0.5;exitDx=0;exitDy=0;entryX=1;entryY=0.5;entryDx=0;entryDy=0;" edge="1" parent="1" source="MwPjWRYvfaQTRuybYrs7-2" target="MwPjWRYvfaQTRuybYrs7-55">
          <mxGeometry relative="1" as="geometry" />
        </mxCell>
        <mxCell id="MwPjWRYvfaQTRuybYrs7-2" value="pacientes" style="rounded=1;whiteSpace=wrap;html=1;" vertex="1" parent="1">
          <mxGeometry x="120" y="190" width="120" height="60" as="geometry" />
        </mxCell>
        <mxCell id="MwPjWRYvfaQTRuybYrs7-23" style="edgeStyle=orthogonalEdgeStyle;rounded=0;orthogonalLoop=1;jettySize=auto;html=1;exitX=0.5;exitY=0;exitDx=0;exitDy=0;entryX=0.5;entryY=1;entryDx=0;entryDy=0;" edge="1" parent="1" source="MwPjWRYvfaQTRuybYrs7-3" target="MwPjWRYvfaQTRuybYrs7-20">
          <mxGeometry relative="1" as="geometry" />
        </mxCell>
        <mxCell id="MwPjWRYvfaQTRuybYrs7-85" style="edgeStyle=orthogonalEdgeStyle;rounded=0;orthogonalLoop=1;jettySize=auto;html=1;exitX=0;exitY=0.25;exitDx=0;exitDy=0;" edge="1" parent="1" source="MwPjWRYvfaQTRuybYrs7-3" target="MwPjWRYvfaQTRuybYrs7-19">
          <mxGeometry relative="1" as="geometry" />
        </mxCell>
        <mxCell id="MwPjWRYvfaQTRuybYrs7-3" value="sedes" style="rounded=1;whiteSpace=wrap;html=1;" vertex="1" parent="1">
          <mxGeometry x="90" y="-90" width="120" height="60" as="geometry" />
        </mxCell>
        <mxCell id="MwPjWRYvfaQTRuybYrs7-40" style="edgeStyle=orthogonalEdgeStyle;rounded=0;orthogonalLoop=1;jettySize=auto;html=1;exitX=0.5;exitY=1;exitDx=0;exitDy=0;entryX=0.5;entryY=0;entryDx=0;entryDy=0;" edge="1" parent="1" source="MwPjWRYvfaQTRuybYrs7-4" target="MwPjWRYvfaQTRuybYrs7-33">
          <mxGeometry relative="1" as="geometry" />
        </mxCell>
        <mxCell id="MwPjWRYvfaQTRuybYrs7-42" style="edgeStyle=orthogonalEdgeStyle;rounded=0;orthogonalLoop=1;jettySize=auto;html=1;exitX=1;exitY=0;exitDx=0;exitDy=0;entryX=0.5;entryY=1;entryDx=0;entryDy=0;" edge="1" parent="1" source="MwPjWRYvfaQTRuybYrs7-4" target="MwPjWRYvfaQTRuybYrs7-36">
          <mxGeometry relative="1" as="geometry" />
        </mxCell>
        <mxCell id="MwPjWRYvfaQTRuybYrs7-44" style="edgeStyle=orthogonalEdgeStyle;rounded=0;orthogonalLoop=1;jettySize=auto;html=1;exitX=0.5;exitY=0;exitDx=0;exitDy=0;entryX=0.5;entryY=1;entryDx=0;entryDy=0;" edge="1" parent="1" source="MwPjWRYvfaQTRuybYrs7-4" target="MwPjWRYvfaQTRuybYrs7-35">
          <mxGeometry relative="1" as="geometry" />
        </mxCell>
        <mxCell id="MwPjWRYvfaQTRuybYrs7-45" style="edgeStyle=orthogonalEdgeStyle;rounded=0;orthogonalLoop=1;jettySize=auto;html=1;exitX=1;exitY=0.5;exitDx=0;exitDy=0;entryX=0;entryY=0.5;entryDx=0;entryDy=0;" edge="1" parent="1" source="MwPjWRYvfaQTRuybYrs7-4" target="MwPjWRYvfaQTRuybYrs7-34">
          <mxGeometry relative="1" as="geometry" />
        </mxCell>
        <mxCell id="MwPjWRYvfaQTRuybYrs7-71" style="edgeStyle=orthogonalEdgeStyle;rounded=0;orthogonalLoop=1;jettySize=auto;html=1;exitX=0;exitY=0.5;exitDx=0;exitDy=0;entryX=1;entryY=0.5;entryDx=0;entryDy=0;" edge="1" parent="1" source="MwPjWRYvfaQTRuybYrs7-4" target="MwPjWRYvfaQTRuybYrs7-1">
          <mxGeometry relative="1" as="geometry" />
        </mxCell>
        <mxCell id="MwPjWRYvfaQTRuybYrs7-105" value="1:1" style="edgeLabel;html=1;align=center;verticalAlign=middle;resizable=0;points=[];" vertex="1" connectable="0" parent="MwPjWRYvfaQTRuybYrs7-71">
          <mxGeometry x="-0.002" y="-1" relative="1" as="geometry">
            <mxPoint y="1" as="offset" />
          </mxGeometry>
        </mxCell>
        <mxCell id="MwPjWRYvfaQTRuybYrs7-4" value="pagos" style="rounded=0;whiteSpace=wrap;html=1;" vertex="1" parent="1">
          <mxGeometry x="960" y="-10" width="120" height="60" as="geometry" />
        </mxCell>
        <mxCell id="MwPjWRYvfaQTRuybYrs7-75" style="edgeStyle=orthogonalEdgeStyle;rounded=0;orthogonalLoop=1;jettySize=auto;html=1;exitX=0.5;exitY=1;exitDx=0;exitDy=0;entryX=0.5;entryY=0;entryDx=0;entryDy=0;" edge="1" parent="1" source="MwPjWRYvfaQTRuybYrs7-5" target="MwPjWRYvfaQTRuybYrs7-26">
          <mxGeometry relative="1" as="geometry" />
        </mxCell>
        <mxCell id="MwPjWRYvfaQTRuybYrs7-76" style="edgeStyle=orthogonalEdgeStyle;rounded=0;orthogonalLoop=1;jettySize=auto;html=1;exitX=0;exitY=1;exitDx=0;exitDy=0;entryX=1;entryY=0;entryDx=0;entryDy=0;" edge="1" parent="1" source="MwPjWRYvfaQTRuybYrs7-5" target="MwPjWRYvfaQTRuybYrs7-25">
          <mxGeometry relative="1" as="geometry" />
        </mxCell>
        <mxCell id="MwPjWRYvfaQTRuybYrs7-82" style="edgeStyle=orthogonalEdgeStyle;rounded=0;orthogonalLoop=1;jettySize=auto;html=1;exitX=1;exitY=1;exitDx=0;exitDy=0;entryX=0.5;entryY=0;entryDx=0;entryDy=0;" edge="1" parent="1" source="MwPjWRYvfaQTRuybYrs7-5" target="MwPjWRYvfaQTRuybYrs7-27">
          <mxGeometry relative="1" as="geometry" />
        </mxCell>
        <mxCell id="MwPjWRYvfaQTRuybYrs7-5" value="medicos" style="rounded=1;whiteSpace=wrap;html=1;" vertex="1" parent="1">
          <mxGeometry x="410" y="390" width="120" height="60" as="geometry" />
        </mxCell>
        <mxCell id="MwPjWRYvfaQTRuybYrs7-54" style="edgeStyle=orthogonalEdgeStyle;rounded=0;orthogonalLoop=1;jettySize=auto;html=1;exitX=0;exitY=1;exitDx=0;exitDy=0;entryX=0.5;entryY=0;entryDx=0;entryDy=0;" edge="1" parent="1" source="MwPjWRYvfaQTRuybYrs7-6" target="MwPjWRYvfaQTRuybYrs7-52">
          <mxGeometry relative="1" as="geometry" />
        </mxCell>
        <mxCell id="MwPjWRYvfaQTRuybYrs7-96" style="edgeStyle=orthogonalEdgeStyle;rounded=0;orthogonalLoop=1;jettySize=auto;html=1;exitX=0;exitY=0.5;exitDx=0;exitDy=0;entryX=1;entryY=0.5;entryDx=0;entryDy=0;" edge="1" parent="1" source="MwPjWRYvfaQTRuybYrs7-6" target="MwPjWRYvfaQTRuybYrs7-5">
          <mxGeometry relative="1" as="geometry" />
        </mxCell>
        <mxCell id="MwPjWRYvfaQTRuybYrs7-104" value="1:N" style="edgeLabel;html=1;align=center;verticalAlign=middle;resizable=0;points=[];" vertex="1" connectable="0" parent="MwPjWRYvfaQTRuybYrs7-96">
          <mxGeometry x="-0.0246" y="2" relative="1" as="geometry">
            <mxPoint as="offset" />
          </mxGeometry>
        </mxCell>
        <mxCell id="MwPjWRYvfaQTRuybYrs7-6" value="especialidades" style="rounded=1;whiteSpace=wrap;html=1;" vertex="1" parent="1">
          <mxGeometry x="730" y="420" width="120" height="60" as="geometry" />
        </mxCell>
        <mxCell id="MwPjWRYvfaQTRuybYrs7-7" value="id_cita" style="ellipse;whiteSpace=wrap;html=1;" vertex="1" parent="1">
          <mxGeometry x="610" y="170" width="120" height="80" as="geometry" />
        </mxCell>
        <mxCell id="MwPjWRYvfaQTRuybYrs7-8" value="id_paciente" style="ellipse;whiteSpace=wrap;html=1;" vertex="1" parent="1">
          <mxGeometry x="470" y="-220" width="120" height="80" as="geometry" />
        </mxCell>
        <mxCell id="MwPjWRYvfaQTRuybYrs7-9" value="id_medico" style="ellipse;whiteSpace=wrap;html=1;" vertex="1" parent="1">
          <mxGeometry x="600" y="-220" width="120" height="80" as="geometry" />
        </mxCell>
        <mxCell id="MwPjWRYvfaQTRuybYrs7-10" value="id_sede" style="ellipse;whiteSpace=wrap;html=1;" vertex="1" parent="1">
          <mxGeometry x="700" y="-130" width="120" height="80" as="geometry" />
        </mxCell>
        <mxCell id="MwPjWRYvfaQTRuybYrs7-11" value="fecha" style="ellipse;whiteSpace=wrap;html=1;" vertex="1" parent="1">
          <mxGeometry x="730" y="90" width="120" height="80" as="geometry" />
        </mxCell>
        <mxCell id="MwPjWRYvfaQTRuybYrs7-12" value="hora" style="ellipse;whiteSpace=wrap;html=1;" vertex="1" parent="1">
          <mxGeometry x="340" y="-170" width="120" height="80" as="geometry" />
        </mxCell>
        <mxCell id="MwPjWRYvfaQTRuybYrs7-19" value="id_sede" style="ellipse;whiteSpace=wrap;html=1;" vertex="1" parent="1">
          <mxGeometry x="-70" y="-200" width="120" height="80" as="geometry" />
        </mxCell>
        <mxCell id="MwPjWRYvfaQTRuybYrs7-20" value="nombre" style="ellipse;whiteSpace=wrap;html=1;" vertex="1" parent="1">
          <mxGeometry x="60" y="-260" width="120" height="80" as="geometry" />
        </mxCell>
        <mxCell id="MwPjWRYvfaQTRuybYrs7-21" value="ciudad" style="ellipse;whiteSpace=wrap;html=1;" vertex="1" parent="1">
          <mxGeometry x="200" y="-230" width="120" height="80" as="geometry" />
        </mxCell>
        <mxCell id="MwPjWRYvfaQTRuybYrs7-24" style="edgeStyle=orthogonalEdgeStyle;rounded=0;orthogonalLoop=1;jettySize=auto;html=1;exitX=1;exitY=0.25;exitDx=0;exitDy=0;entryX=0.358;entryY=0.975;entryDx=0;entryDy=0;entryPerimeter=0;" edge="1" parent="1" source="MwPjWRYvfaQTRuybYrs7-3" target="MwPjWRYvfaQTRuybYrs7-21">
          <mxGeometry relative="1" as="geometry" />
        </mxCell>
        <mxCell id="MwPjWRYvfaQTRuybYrs7-25" value="id_especialidad" style="ellipse;whiteSpace=wrap;html=1;" vertex="1" parent="1">
          <mxGeometry x="210" y="500" width="120" height="80" as="geometry" />
        </mxCell>
        <mxCell id="MwPjWRYvfaQTRuybYrs7-26" value="nombre" style="ellipse;whiteSpace=wrap;html=1;" vertex="1" parent="1">
          <mxGeometry x="330" y="580" width="120" height="80" as="geometry" />
        </mxCell>
        <mxCell id="MwPjWRYvfaQTRuybYrs7-27" value="id_medico" style="ellipse;whiteSpace=wrap;html=1;" vertex="1" parent="1">
          <mxGeometry x="470" y="580" width="120" height="80" as="geometry" />
        </mxCell>
        <mxCell id="MwPjWRYvfaQTRuybYrs7-33" value="id_cita" style="ellipse;whiteSpace=wrap;html=1;" vertex="1" parent="1">
          <mxGeometry x="960" y="130" width="120" height="80" as="geometry" />
        </mxCell>
        <mxCell id="MwPjWRYvfaQTRuybYrs7-34" value="monto" style="ellipse;whiteSpace=wrap;html=1;" vertex="1" parent="1">
          <mxGeometry x="1180" y="-20" width="120" height="80" as="geometry" />
        </mxCell>
        <mxCell id="MwPjWRYvfaQTRuybYrs7-35" value="id_pago" style="ellipse;whiteSpace=wrap;html=1;" vertex="1" parent="1">
          <mxGeometry x="910" y="-170" width="120" height="80" as="geometry" />
        </mxCell>
        <mxCell id="MwPjWRYvfaQTRuybYrs7-36" value="metodo_pago" style="ellipse;whiteSpace=wrap;html=1;" vertex="1" parent="1">
          <mxGeometry x="1060" y="-180" width="120" height="80" as="geometry" />
        </mxCell>
        <mxCell id="MwPjWRYvfaQTRuybYrs7-37" value="fecha_pago" style="ellipse;whiteSpace=wrap;html=1;" vertex="1" parent="1">
          <mxGeometry x="1110" y="100" width="120" height="80" as="geometry" />
        </mxCell>
        <mxCell id="MwPjWRYvfaQTRuybYrs7-39" style="edgeStyle=orthogonalEdgeStyle;rounded=0;orthogonalLoop=1;jettySize=auto;html=1;exitX=1;exitY=1;exitDx=0;exitDy=0;entryX=0.317;entryY=0.05;entryDx=0;entryDy=0;entryPerimeter=0;" edge="1" parent="1" source="MwPjWRYvfaQTRuybYrs7-4" target="MwPjWRYvfaQTRuybYrs7-37">
          <mxGeometry relative="1" as="geometry" />
        </mxCell>
        <mxCell id="MwPjWRYvfaQTRuybYrs7-48" style="edgeStyle=orthogonalEdgeStyle;rounded=0;orthogonalLoop=1;jettySize=auto;html=1;exitX=1;exitY=1;exitDx=0;exitDy=0;entryX=0.192;entryY=0.063;entryDx=0;entryDy=0;entryPerimeter=0;" edge="1" parent="1" source="MwPjWRYvfaQTRuybYrs7-1" target="MwPjWRYvfaQTRuybYrs7-11">
          <mxGeometry relative="1" as="geometry" />
        </mxCell>
        <mxCell id="MwPjWRYvfaQTRuybYrs7-51" value="nombre" style="ellipse;whiteSpace=wrap;html=1;" vertex="1" parent="1">
          <mxGeometry x="810" y="610" width="120" height="80" as="geometry" />
        </mxCell>
        <mxCell id="MwPjWRYvfaQTRuybYrs7-52" value="id_especialidades" style="ellipse;whiteSpace=wrap;html=1;" vertex="1" parent="1">
          <mxGeometry x="650" y="600" width="120" height="80" as="geometry" />
        </mxCell>
        <mxCell id="MwPjWRYvfaQTRuybYrs7-53" style="edgeStyle=orthogonalEdgeStyle;rounded=0;orthogonalLoop=1;jettySize=auto;html=1;exitX=1;exitY=1;exitDx=0;exitDy=0;entryX=0.417;entryY=-0.037;entryDx=0;entryDy=0;entryPerimeter=0;" edge="1" parent="1" source="MwPjWRYvfaQTRuybYrs7-6" target="MwPjWRYvfaQTRuybYrs7-51">
          <mxGeometry relative="1" as="geometry" />
        </mxCell>
        <mxCell id="MwPjWRYvfaQTRuybYrs7-55" value="id_paciente" style="ellipse;whiteSpace=wrap;html=1;" vertex="1" parent="1">
          <mxGeometry x="-60" y="170" width="120" height="80" as="geometry" />
        </mxCell>
        <mxCell id="MwPjWRYvfaQTRuybYrs7-56" value="nombre" style="ellipse;whiteSpace=wrap;html=1;" vertex="1" parent="1">
          <mxGeometry x="-40" y="290" width="120" height="80" as="geometry" />
        </mxCell>
        <mxCell id="MwPjWRYvfaQTRuybYrs7-57" value="correo" style="ellipse;whiteSpace=wrap;html=1;" vertex="1" parent="1">
          <mxGeometry x="100" y="330" width="120" height="80" as="geometry" />
        </mxCell>
        <mxCell id="MwPjWRYvfaQTRuybYrs7-58" value="telefono" style="ellipse;whiteSpace=wrap;html=1;" vertex="1" parent="1">
          <mxGeometry x="270" y="300" width="120" height="80" as="geometry" />
        </mxCell>
        <mxCell id="MwPjWRYvfaQTRuybYrs7-60" style="edgeStyle=orthogonalEdgeStyle;rounded=0;orthogonalLoop=1;jettySize=auto;html=1;exitX=0.75;exitY=1;exitDx=0;exitDy=0;entryX=0.233;entryY=0.05;entryDx=0;entryDy=0;entryPerimeter=0;" edge="1" parent="1" source="MwPjWRYvfaQTRuybYrs7-2" target="MwPjWRYvfaQTRuybYrs7-57">
          <mxGeometry relative="1" as="geometry" />
        </mxCell>
        <mxCell id="MwPjWRYvfaQTRuybYrs7-61" style="edgeStyle=orthogonalEdgeStyle;rounded=0;orthogonalLoop=1;jettySize=auto;html=1;exitX=0.25;exitY=1;exitDx=0;exitDy=0;entryX=0.583;entryY=0;entryDx=0;entryDy=0;entryPerimeter=0;" edge="1" parent="1" source="MwPjWRYvfaQTRuybYrs7-2" target="MwPjWRYvfaQTRuybYrs7-56">
          <mxGeometry relative="1" as="geometry" />
        </mxCell>
        <mxCell id="MwPjWRYvfaQTRuybYrs7-65" style="edgeStyle=orthogonalEdgeStyle;rounded=0;orthogonalLoop=1;jettySize=auto;html=1;exitX=1;exitY=0;exitDx=0;exitDy=0;entryX=0.317;entryY=1.025;entryDx=0;entryDy=0;entryPerimeter=0;" edge="1" parent="1" source="MwPjWRYvfaQTRuybYrs7-1" target="MwPjWRYvfaQTRuybYrs7-10">
          <mxGeometry relative="1" as="geometry" />
        </mxCell>
        <mxCell id="MwPjWRYvfaQTRuybYrs7-77" style="edgeStyle=orthogonalEdgeStyle;rounded=0;orthogonalLoop=1;jettySize=auto;html=1;exitX=0;exitY=0.25;exitDx=0;exitDy=0;entryX=0.585;entryY=1.052;entryDx=0;entryDy=0;entryPerimeter=0;" edge="1" parent="1" source="MwPjWRYvfaQTRuybYrs7-1" target="MwPjWRYvfaQTRuybYrs7-3">
          <mxGeometry relative="1" as="geometry" />
        </mxCell>
        <mxCell id="MwPjWRYvfaQTRuybYrs7-101" value="1:N" style="edgeLabel;html=1;align=center;verticalAlign=middle;resizable=0;points=[];" vertex="1" connectable="0" parent="MwPjWRYvfaQTRuybYrs7-77">
          <mxGeometry x="-0.0064" y="-1" relative="1" as="geometry">
            <mxPoint y="1" as="offset" />
          </mxGeometry>
        </mxCell>
        <mxCell id="MwPjWRYvfaQTRuybYrs7-79" style="edgeStyle=orthogonalEdgeStyle;rounded=0;orthogonalLoop=1;jettySize=auto;html=1;exitX=0;exitY=0;exitDx=0;exitDy=0;entryX=0.953;entryY=0.715;entryDx=0;entryDy=0;entryPerimeter=0;" edge="1" parent="1" source="MwPjWRYvfaQTRuybYrs7-1" target="MwPjWRYvfaQTRuybYrs7-12">
          <mxGeometry relative="1" as="geometry" />
        </mxCell>
        <mxCell id="MwPjWRYvfaQTRuybYrs7-88" value="1" style="text;html=1;align=center;verticalAlign=middle;resizable=0;points=[];autosize=1;strokeColor=none;fillColor=none;" vertex="1" parent="1">
          <mxGeometry x="165" y="-22" width="30" height="30" as="geometry" />
        </mxCell>
        <mxCell id="MwPjWRYvfaQTRuybYrs7-89" value="N" style="text;html=1;align=center;verticalAlign=middle;resizable=0;points=[];autosize=1;strokeColor=none;fillColor=none;" vertex="1" parent="1">
          <mxGeometry x="470" y="-22" width="30" height="30" as="geometry" />
        </mxCell>
        <mxCell id="MwPjWRYvfaQTRuybYrs7-91" value="1" style="text;html=1;align=center;verticalAlign=middle;resizable=0;points=[];autosize=1;strokeColor=none;fillColor=none;" vertex="1" parent="1">
          <mxGeometry x="155" y="158" width="30" height="30" as="geometry" />
        </mxCell>
        <mxCell id="MwPjWRYvfaQTRuybYrs7-92" value="N" style="text;html=1;align=center;verticalAlign=middle;resizable=0;points=[];autosize=1;strokeColor=none;fillColor=none;" vertex="1" parent="1">
          <mxGeometry x="475" y="38" width="30" height="30" as="geometry" />
        </mxCell>
        <mxCell id="MwPjWRYvfaQTRuybYrs7-93" value="1" style="text;html=1;align=center;verticalAlign=middle;resizable=0;points=[];autosize=1;strokeColor=none;fillColor=none;" vertex="1" parent="1">
          <mxGeometry x="445" y="358" width="30" height="30" as="geometry" />
        </mxCell>
        <mxCell id="MwPjWRYvfaQTRuybYrs7-94" value="N" style="text;html=1;align=center;verticalAlign=middle;resizable=0;points=[];autosize=1;strokeColor=none;fillColor=none;" vertex="1" parent="1">
          <mxGeometry x="505" y="48" width="30" height="30" as="geometry" />
        </mxCell>
        <mxCell id="MwPjWRYvfaQTRuybYrs7-97" value="1" style="text;html=1;align=center;verticalAlign=middle;resizable=0;points=[];autosize=1;strokeColor=none;fillColor=none;" vertex="1" parent="1">
          <mxGeometry x="525" y="418" width="30" height="30" as="geometry" />
        </mxCell>
        <mxCell id="MwPjWRYvfaQTRuybYrs7-98" value="N" style="text;html=1;align=center;verticalAlign=middle;resizable=0;points=[];autosize=1;strokeColor=none;fillColor=none;" vertex="1" parent="1">
          <mxGeometry x="695" y="448" width="30" height="30" as="geometry" />
        </mxCell>
        <mxCell id="MwPjWRYvfaQTRuybYrs7-99" value="1" style="text;html=1;align=center;verticalAlign=middle;resizable=0;points=[];autosize=1;strokeColor=none;fillColor=none;" vertex="1" parent="1">
          <mxGeometry x="625" y="-12" width="30" height="30" as="geometry" />
        </mxCell>
        <mxCell id="MwPjWRYvfaQTRuybYrs7-100" value="1" style="text;html=1;align=center;verticalAlign=middle;resizable=0;points=[];autosize=1;strokeColor=none;fillColor=none;" vertex="1" parent="1">
          <mxGeometry x="930" y="-10" width="30" height="30" as="geometry" />
        </mxCell>
      </root>
    </mxGraphModel>
  </diagram>
</mxfile>
